<svg id="Layer_1" data-name="Layer 1" xmlns="http://www.w3.org/2000/svg" viewBox="0 0 512 512"><defs><style>.cls-1{fill:#727272;}</style></defs><title>chat-bubble-smile-handdrawn</title><path class="cls-1" d="M25.42,398.24a71.59,71.59,0,0,0,12.85,8.58C40.57,408,43,409.06,45.32,410l3.58,1.25a17,17,0,0,0,2,.65,5.38,5.38,0,0,1,1.07.34l0,1.17,0,5.49,0,14.37q0,21,0,42l26.48-26.67L95.5,431.16c3.61-3.71,7.84-7.72,11.59-11.25l3.52-3.31a22.25,22.25,0,0,1,1.89-1.7,27.24,27.24,0,0,0,2.92.14l5.25.13,10.52.25,21.12.4,42.49.49,85.62.2,42.93,0h10.73a82.37,82.37,0,0,0,11.79-1,71.69,71.69,0,0,0,22.47-7.38,74.1,74.1,0,0,0,32.37-33.52A73.15,73.15,0,0,0,407.47,352c.89-8.19.68-15,.87-22.05,0-2.63,0-5.48,0-8.19-.18-17.07-1.13-31-2.44-38.64,1.95-.27,3.9-.54,5.83-.89,43.91-8.63,81.28-42,95.69-83.73a37.56,37.56,0,0,0,1.73-6l1.77-7.75c.39-2.49.55-4.9.75-7.12s.31-4.31.36-6.2c-.11-1.91-.26-3.63-.44-5.15-.71-6.09-1.92-8.81-3.39-7-2.85,3.4-5.08,12.08-9.25,23.81a147.13,147.13,0,0,1-21.93,41,118,118,0,0,1-27.42,26.39c-33.88,23.48-81,25.39-116.72,5a119.46,119.46,0,0,1-24.43-18.54A122.3,122.3,0,0,1,290,212.33c-9.74-18-14.83-38.64-13.55-59.17h0c1.38-31.84,17.31-62.8,42.82-82.1A110.13,110.13,0,0,1,476.62,93.74c14.62,20.4,21.34,41.12,24.49,60,1.27,7.13,3.19,6.78,3.24-2.35a109.69,109.69,0,0,0-8.86-42.84c-10.43-24.86-30.42-46-55-58.55C405.53,31.6,360.87,32.27,326,52.33c-29.69,16.82-52.18,46.18-59.84,79.85A120.75,120.75,0,0,0,263.81,147c-1.42-.14-3-.26-5-.34-20-.79-40.73-1.51-61.89-1.92L83.34,143c-6.78,0-13.48-.36-20.63.25a68.93,68.93,0,0,0-51.94,33.19,68.22,68.22,0,0,0-8,19.81A90.79,90.79,0,0,0,.84,217.33L.6,258.15Q.41,286.86.22,315.51L0,344.23a70.45,70.45,0,0,0,25.42,54ZM12.56,209.39C12.92,188.13,26.43,168,45.62,159a57.93,57.93,0,0,1,26.46-5.7l30.81,0,61.6.15c37.71.12,69.61-1.14,97.44-3.53.65-.06,1.13-.13,1.7-.19a122.37,122.37,0,0,0,1.82,33.75,118.05,118.05,0,0,0,21.08,47.05c2.42,3,4.66,6.73,7.25,9.55,6.51,8.52,14.74,15.62,23.38,22.22,9,6,18.59,11.6,29.08,15,17.16,6.41,35.87,8.15,54.19,6.31-1.68,6.37-3.16,16.1-4.36,28.69-.86,9-1.56,19.42-2.11,31a64,64,0,0,1-10.65,31.88,59.56,59.56,0,0,1-41.87,25.79c-2.11.34-4.26.26-6.39.44l-7.17,0H107L65.15,443.38V403.77a6.05,6.05,0,0,0-.12-1.84l-1.87-.47-7.5-1.89a18.93,18.93,0,0,1-2.47-.72l-1.71-.58,0,0A57.87,57.87,0,0,1,13.1,351.7a61.31,61.31,0,0,1-.63-7.9l0-8.92V281Zm97.67,12.9c-.31-2.77,1-5.32,2.79-5.62a1.27,1.27,0,0,1,.52,0c7.3,2.1,14.86-.91,22.09,2.68a1.69,1.69,0,0,0,1,.24c5.88-1.27,11.68.68,17.52,1a82.77,82.77,0,0,1,10.26,1.58,67.74,67.74,0,0,1,7.15,1.7,16.53,16.53,0,0,1,3.9,1.92c.81.51.86,2.46.2,3.36-1.75,2.39-3.76,3.66-6.13,3.53-2.58-.13-5.17-.21-7.76-.22-6,0-12.07,0-18.1,0v0q-11.64,0-23.28,0a17.6,17.6,0,0,1-3.61-.24C113.33,231.4,110.82,227.57,110.22,222.29Zm70.33,51c5.49.19,11,.95,16.42,1.58,3.83.44,7.66,1,11.44,1.7a34.94,34.94,0,0,1,6.23,1.92c1.3.51,1.37,2.46.32,3.36a13.94,13.94,0,0,1-9.82,3.53q-6.2-.2-12.41-.22c-9.65,0-19.31,0-29,0v0q-18.63,0-37.25,0a44.78,44.78,0,0,1-5.78-.24A11.89,11.89,0,0,1,110.25,275a4.86,4.86,0,0,1,4.46-5.62,3.22,3.22,0,0,1,.83,0c11.68,2.1,23.78-.91,35.35,2.68a4.06,4.06,0,0,0,1.63.24C161.92,271,171.21,273,180.55,273.33ZM110.31,327.8c-.87-2.77,2.68-5.32,7.81-5.62a9.82,9.82,0,0,1,1.44,0c20.44,2.1,41.62-.91,61.86,2.68a12.08,12.08,0,0,0,2.85.24c16.46-1.27,32.72.68,49.07,1,9.6.19,19.17.95,28.73,1.58,6.7.44,13.4,1,20,1.7A97.67,97.67,0,0,1,293,331.28c2.27.51,2.4,2.46.55,3.36a36.91,36.91,0,0,1-17.18,3.53q-10.85-.2-21.72-.22-25.34,0-50.68,0v0q-32.6,0-65.19,0c-3.38,0-6.79,0-10.12-.24C119,336.91,112,333.08,110.31,327.8ZM360.77,145.51A13.19,13.19,0,1,1,374,132.32,13.19,13.19,0,0,1,360.77,145.51Zm52.76,0a13.19,13.19,0,1,1,13.19-13.19A13.19,13.19,0,0,1,413.52,145.51Zm-55.65,50c-2.87-3.21-2-8.12,1.65-11.94,1.91-2,4.52-2.9,5.75-2.12a.82.82,0,0,1,.32.26c1.4,2.81,4.16,4.46,6.85,5.81s5.44,2.47,8.17,4.8a1.34,1.34,0,0,0,.83.4c5.14-.43,10.21,1.24,15.51.1a71.19,71.19,0,0,0,9.28-2.35c2.17-.78,4.34-1.71,6.54-2.74a31.1,31.1,0,0,1,4.15-1.4c.95-.26,2.47,1,2.62,2.11a7.46,7.46,0,0,1-2.8,7.47,58.11,58.11,0,0,1-8,4.93,47.79,47.79,0,0,1-21,5.21v0a47,47,0,0,1-26.53-7.74A16.93,16.93,0,0,1,357.88,195.49Z"/></svg>